# xmcd
#
# Track frame offsets: 
#        150
#        16537
#        32287
#        49057
#        66383
#        82434
#        93885
#        108735
#        126660
#        138163
#        146898
#
# Disc length: 2147 seconds
#
# Revision: 0
# Processed by: cddbd v1.5.2PL0 Copyright (c) Steve Scherf et al.
# Submitted via: ExactAudioCopy v0.95a5
#
DISCID=9c08610b
DTITLE=Renamassa - Vol.1
DYEAR=1900
DGENRE=
TTITLE0=Always with me, always with you
TTITLE1=Go away forever
TTITLE2=Moonflower
TTITLE3=Europa
TTITLE4=D-Minor
TTITLE5=Доброе утро
TTITLE6=Морской бриз
TTITLE7=Фламенко
TTITLE8=SRV-blues
TTITLE9=Рок-н-ролл
TTITLE10=Wonderful tonight
EXTD=
EXTT0=
EXTT1=
EXTT2=
EXTT3=
EXTT4=
EXTT5=
EXTT6=
EXTT7=
EXTT8=
EXTT9=
EXTT10=
PLAYORDER=
